<svg width="63" height="65" fill="none" xmlns="http://www.w3.org/2000/svg"><path d="M34.503 34.044a.632.632 0 00-.295-.38.616.616 0 00-.473-.06c-.101.03-.203.058-.304.085a.62.62 0 00-.396.288.637.637 0 00.465.957c.083.01.168.002.248-.023l.322-.089a.626.626 0 00.375-.298.641.641 0 00.058-.48z" fill="#408F95"/><path d="M61.054 37.97c-2.568.65-5.259.61-7.807-.119a14.56 14.56 0 00.701-3.943c.173-4.732-1.925-8.638-6.066-11.296a19.381 19.381 0 00-6.287-2.579 38.122 38.122 0 00-3.253-.555 17.83 17.83 0 01.728-2.216.642.642 0 00-.113-.683.62.62 0 00-.662-.169 16.825 16.825 0 00-7.587 5.446c-2.469.286-4.39 1.297-5.56 2.93l-.013.02c-.123.185-2.828 4.193-7.552 3.71 1.573-1.486 4.422-4.764 5.13-9.547.935-6.31-.754-10.871-1.829-13.01 2.007.705 5.694 2.724 7.33 8.275.067.253.819 2.884 3.734 4.648a.616.616 0 00.855-.22.64.64 0 00-.217-.866c-2.538-1.536-3.162-3.866-3.167-3.887a.423.423 0 00-.007-.026c-2.526-8.588-9.452-9.502-9.746-9.536a.616.616 0 00-.609.308.64.64 0 00.031.69c.037.05 3.61 5.22 2.392 13.437-.89 6.018-5.629 9.57-5.676 9.605a.631.631 0 00-.247.631.636.636 0 00.458.495 9.23 9.23 0 002.322.304c4.796 0 7.623-3.999 7.824-4.293.776-1.082 1.94-1.815 3.468-2.193a23.439 23.439 0 00-3.102 6.976 9.207 9.207 0 01-1.245 2.865 7.919 7.919 0 01-1.369 1.582 75.773 75.773 0 01-10.471-.703c-8.764-.947-12.055 3.794-12.191 3.996a.638.638 0 00-.08.547 24.992 24.992 0 004.71 8.623c2.269 4.032 6.643 7.25 9.923 9.245 3.679 2.236 8.97 3.507 12.208 3.507a23.633 23.633 0 0010.783-2.635c1.194.814 3.255 1.78 6.31 1.78a17.3 17.3 0 004.106-.526.623.623 0 00.464-.49.641.641 0 00-.242-.635c-.015-.01-1.496-1.134-2.698-3.388a.63.63 0 00-.37-.306.614.614 0 00-.662.208.635.635 0 00-.064.7 13.383 13.383 0 002.102 2.93c-3.706.655-6.196-.138-7.671-.965 4.99-2.88 8.298-6.873 9.69-8.776.24.013.483.02.732.02a11.39 11.39 0 004.575-.912c3.072-1.337 5.345-4.093 6.754-8.191a.641.641 0 00-.138-.646.622.622 0 00-.63-.168l.001.002zM28.011 58.706c-2.43 0-8.076-1.206-11.567-3.328-3.048-1.853-7.072-4.791-9.265-8.415 1.106-.912 4.932-3.336 11.22.186.138.075 3.467 1.862 8.46 2.714 4.554.777 11.38.87 18.178-3.026 1.055.414 2.151.709 3.27.88-2.65 3.422-9.712 10.989-20.296 10.989zM54.586 45.81c-4.433 1.935-9.285-.23-9.333-.252a.605.605 0 00-.57.03c-6.55 3.857-13.172 3.779-17.575 3.034-4.802-.812-8.09-2.571-8.115-2.585-4.333-2.428-7.634-2.217-9.64-1.614a8.55 8.55 0 00-2.906 1.514 24.602 24.602 0 01-3.986-7.41c.75-.9 3.864-3.97 10.836-3.22.56.084 9.866 1.454 17.73.18a.622.622 0 00.399-.256.64.64 0 00-.138-.877.617.617 0 00-.459-.116 41.983 41.983 0 01-5.137.478c.221-.267.429-.546.622-.836a10.483 10.483 0 001.42-3.26c.564-2.225 2.873-9.391 9.692-12.5-.884 2.738-2.238 8.88 1.986 12.165-.751.976-1.851 1.8-3.297 2.46a.622.622 0 00-.327.353.641.641 0 00.156.685.623.623 0 00.446.171.615.615 0 00.237-.055c2.815-1.287 4.514-3.156 5.05-5.557a.37.37 0 00.006-.03c.018-.102.416-2.548-1.991-4.488a.617.617 0 00-.876.102.639.639 0 00.1.889c1.756 1.414 1.563 3.11 1.541 3.266a5.588 5.588 0 01-.385 1.123c-2.606-2.13-2.538-5.78-2.014-8.487a37.113 37.113 0 013.303.56 18.427 18.427 0 015.886 2.425c3.776 2.436 5.611 5.854 5.454 10.159a13.295 13.295 0 01-.633 3.575c-.48-.197-.946-.425-1.398-.682a.616.616 0 00-.849.24.64.64 0 00.238.862c4.026 2.296 8.194 1.956 10.177 1.596-1.293 3.148-3.19 5.284-5.65 6.358z" fill="#408F95"/><path d="M19.741 38.888l-.748.304a.622.622 0 00-.344.338.64.64 0 00.328.832.615.615 0 00.479.004l.748-.304a.624.624 0 00.344-.338.641.641 0 00-.127-.693.622.622 0 00-.68-.143zm12.669.999a.64.64 0 00.009-.48.629.629 0 00-.325-.348.615.615 0 00-.472-.017.627.627 0 00-.348.323c-.058.129-1.383 3.178.972 5.723a.653.653 0 00.881.028.632.632 0 00.157-.684.632.632 0 00-.13-.21c-1.771-1.915-.79-4.232-.744-4.335zm3.552-.701a.641.641 0 00.015-.483.63.63 0 00-.326-.354.615.615 0 00-.477-.015.628.628 0 00-.347.33c-.058.13-1.383 3.178.972 5.723.123.133.648.229.88.029a.621.621 0 00.201-.441.63.63 0 00-.172-.453c-1.772-1.915-.792-4.23-.746-4.336zm3.206-1.348a.64.64 0 00-.315-.827.615.615 0 00-.472-.018.627.627 0 00-.348.324c-.058.129-1.383 3.178.972 5.723.122.132.644.244.88.028a.627.627 0 00.159-.685.628.628 0 00-.13-.21c-1.773-1.915-.79-4.234-.746-4.335z" fill="#408F95"/></svg>