<svg width="61" height="56" fill="none" xmlns="http://www.w3.org/2000/svg"><path d="M55.763 24.905a1.862 1.862 0 00-.245-.885c-.433-.765-1.386-1.252-2.829-1.447a27.757 27.757 0 01-2.334-.412 25.433 25.433 0 00-6.668-.603 52.728 52.728 0 00-5.628.518 182.1 182.1 0 00-1.363.218c-3.78.612-11.47 1.858-16.247.897-.649-1.243-.76-2.353-.332-3.304.931-2.065 4.084-3.032 5.225-3.32 1.35 2.094 3.068 3.383 5.108 3.833 3.795.837 7.29-1.547 7.437-1.649a.655.655 0 00.019-1.053.63.63 0 00-.378-.126 1.98 1.98 0 01-.966-.334 4.174 4.174 0 01-1.504-1.616c-1.3-2.43-3.177-3.337-4.255-3.67 2.194-5.333-.66-8.819-.788-8.971l-.017-.02C29.309 2.21 29.696.847 29.7.836a.655.655 0 00-.194-.68.632.632 0 00-.69-.091c-3.031 1.472-4.836 4.214-5.22 7.93a16.198 16.198 0 00.146 4.231c-1.462-.1-2.93-.067-4.386.096-.576.057-11.504 1.246-16.354 10.01C.868 26.188.668 30.82 2.468 34.72c1.468 3.181 3.896 5.63 7.218 7.29a13.237 13.237 0 00-2.36 3.542 6.237 6.237 0 01-6.583 3.826.629.629 0 00-.676.348.654.654 0 00.132.758c2.065 1.983 4.7 3.15 7.262 2.967 4.862-.348 8.842-4.61 10.326-6.444a16.084 16.084 0 012.028-2.113.626.626 0 00.083.003c3.09-.2 7.054.017 7.085.019l.31.019a9.707 9.707 0 00-2.861 3.255c-1.023 1.862-3.643 5.75-7.697 5.777.73-.56 1.3-1.305 1.654-2.162a5.319 5.319 0 00.356-2.712.653.653 0 00-.232-.44.635.635 0 00-.712-.065.639.639 0 00-.304.393.656.656 0 00-.018.254c.12.964-.102 1.94-.627 2.753a4.296 4.296 0 01-2.357 1.697.635.635 0 00-.356.217.652.652 0 00.317 1.037 8.31 8.31 0 002.276.328c4.703 0 7.664-4.357 8.812-6.449a8.306 8.306 0 012.817-3.053c.446-.28.914-.52 1.4-.722l.02-.011c.2.002.399.005.596.005 12.912 0 20.717-5.417 23.612-7.898a3.79 3.79 0 012.463-.916h1.576a3.271 3.271 0 001.862-.552c1.404-.962 1.209-2.514.863-3.335.024-.988-.13-5.628-4.99-7.43zm-38.96 21.28c-1.076 1.33-4.934 5.689-9.422 5.976-1.734.11-3.403-.398-4.98-1.514 1.82-.219 4.534-1.152 6.086-4.565.017-.04 1.752-3.99 4.467-4.678a.638.638 0 00.388-.295.654.654 0 00-.218-.883.628.628 0 00-.479-.076 5.55 5.55 0 00-1.908.933c-3.309-1.53-5.704-3.853-7.116-6.912-1.626-3.523-1.442-7.712.492-11.207 4.545-8.213 15.266-9.347 15.373-9.357l.008-.002h.009c.027-.003 2.713-.326 4.947-.002a.629.629 0 00.566-.21.65.65 0 00.14-.595 14.783 14.783 0 01-.29-4.706c.299-2.813 1.459-4.914 3.453-6.262a3.07 3.07 0 00.732 1.997c.183.225 2.649 3.413.275 8.298a.655.655 0 00.224.828.632.632 0 00.29.101c.024.002 2.537.266 4.1 3.186a5.457 5.457 0 001.972 2.11l.02.011c-1.226.569-3.207 1.223-5.22.775-1.806-.401-3.33-1.623-4.526-3.634a.639.639 0 00-.663-.301c-.209.04-5.147 1.014-6.562 4.146-.47 1.043-.5 2.183-.088 3.402a4.75 4.75 0 01-1.73-1.068 3.425 3.425 0 01-.825-1.323.65.65 0 00-.317-.378.63.63 0 00-.858.285.651.651 0 00-.035.495c.232.69.618 1.315 1.128 1.827 3.631 3.742 14.71 1.947 20.66.983.506-.082.96-.156 1.354-.216a51.481 51.481 0 015.492-.505c2.128-.09 4.259.104 6.338.573.749.168 1.57.313 2.44.431 1.33.18 1.692.51 1.967 1.045a4.25 4.25 0 01-.92.19 6.245 6.245 0 01-1.523-.035 17.461 17.461 0 00-9.736 1.57 15.856 15.856 0 00-5.432 4.414c-1.383 1.724-5.233 5.738-11.103 5.786a.633.633 0 00-.442.195.652.652 0 00.003.906c.118.12.277.189.444.191h.006c6.41-.052 10.583-4.397 12.08-6.262a14.59 14.59 0 014.994-4.065 16.16 16.16 0 019.016-1.454 7.51 7.51 0 001.83.04 5.043 5.043 0 001.404-.332c3.109 1.056 4.025 3.4 4.283 4.931a6.943 6.943 0 00-3.737-1.219h-.008c-7.07-.625-12.966 4.85-13.42 5.285-5.263 4.298-13.836 5.386-13.922 5.397a.952.952 0 00-.037.006l-4.44.816c-.239.036-2.163.39-4.738 2.564-.834.712-1.6 1.504-2.286 2.364zm36.338-10.01a28.628 28.628 0 01-5.558 3.657c.52-.85.95-1.753 1.282-2.695a.655.655 0 00-.02-.494.64.64 0 00-.604-.373.643.643 0 00-.571.423c-1.28 3.546-2.977 4.434-3.02 4.456l-.015.009c-1.168.46-2.36.856-3.569 1.188a10.032 10.032 0 001.715-3.29c1.113-3.46 2.316-4.633 2.493-4.792 1.38-.96 2.87-1.748 4.437-2.343-.387.568-.72 1.172-.995 1.804a.636.636 0 00.113.71.62.62 0 00.207.144.727.727 0 00.842-.325c1.069-2.414 2.238-2.972 2.426-3.05a12.12 12.12 0 013.26-.159.748.748 0 00.072.003h.017a7.678 7.678 0 00-.887 2.105 7.86 7.86 0 01-1.625 3.022zm-18.457 7.353a6.11 6.11 0 00.958-1.548l.009-.022c.006-.016.62-1.57 1.487-2.547a24 24 0 005.213-2.844 22.472 22.472 0 00-.78 2.088c-1.13 3.517-3.17 4.289-3.383 4.36a39.34 39.34 0 01-3.504.514zm-12.998.002c1.394-.839 2.302-.99 2.33-.994.005 0 .009-.002.013-.003l.016-.001 4.063-.747a5.645 5.645 0 01-1.636 1.811 79.58 79.58 0 00-4.786-.066zm6.607.164a6.82 6.82 0 001.34-2.156 39.306 39.306 0 005.46-1.375c-.232.424-.44.86-.622 1.308-.666 1.53-1.737 2.091-2.033 2.222a45.117 45.117 0 01-4.145.002zM59.177 34.6a2.02 2.02 0 01-1.148.33h-1.577a5.04 5.04 0 00-1.046.115 8.723 8.723 0 00.588-1.55c.358-1.318.86-1.973 1.078-2.21a5.52 5.52 0 012.505 1.547c.112.267.43 1.2-.4 1.769z" fill="#408F95"/><path d="M15.632 18.35a.627.627 0 00.687-.172.649.649 0 00.128-.215c.037-.102.076-.203.118-.303a.654.654 0 00-.132-.706.636.636 0 00-.692-.146.636.636 0 00-.348.346 6.14 6.14 0 00-.143.37.653.653 0 00.382.826zm16.632 12.773a.626.626 0 00.372-.122l.61-.445a.653.653 0 00.138-.897.63.63 0 00-.882-.151l-.61.445a.645.645 0 00-.234.723.63.63 0 00.607.447zm-10.84-.445c.352 0 .637-.29.637-.646a.642.642 0 00-.637-.646.642.642 0 00-.637.646c0 .357.285.646.637.646zm-6.86 4.954a.633.633 0 00-.546.456.655.655 0 00.205.687.633.633 0 00.966-.195.656.656 0 00-.158-.805.633.633 0 00-.22-.118.624.624 0 00-.247-.025zm-3.277-7.469a.632.632 0 00-.342.144.648.648 0 00-.205.687c.037.122.108.23.206.312a.632.632 0 00.965-.195.653.653 0 00-.157-.805.634.634 0 00-.467-.143z" fill="#408F95"/></svg>