<svg width="64" height="66" fill="none" xmlns="http://www.w3.org/2000/svg"><path d="M16.826 41.82a3.318 3.318 0 01-1.677-.5L4.813 35.202a2.568 2.568 0 01-1.148-.956 2.625 2.625 0 010-2.886c.28-.427.68-.76 1.148-.957l4.205-2.468a26.212 26.212 0 015.881-2.383l7.424-1.812a19.298 19.298 0 016.368-.28l9.536 1.455a8.152 8.152 0 004.884-1.117l3.392-2.318a.95.95 0 011.334.263.987.987 0 01-.26 1.354l-3.417 2.319a9.905 9.905 0 01-6.214 1.402L28.41 25.39a17.662 17.662 0 00-5.632.246l-7.418 1.832a24.34 24.34 0 00-5.37 2.175l-4.23 2.449a1.043 1.043 0 00-.64.714 1.064 1.064 0 00.64.714l10.342 6.118a1.05 1.05 0 00.922.188 1.067 1.067 0 00.32-.896l.102-6.832c0-.258.102-.506.282-.689a.953.953 0 011.357 0c.18.183.281.43.281.69l-.083 6.857a2.9 2.9 0 01-.291 1.476 2.851 2.851 0 01-.989 1.122 2.309 2.309 0 01-1.177.266zm37.811-8.416c-.52 0-1.035-.1-1.517-.3l-1.645-.649a100.6 100.6 0 01-5.478-2.467l-2.56-1.3a.962.962 0 01-.52-.556.987.987 0 01.275-1.077.957.957 0 01.721-.23c.13.013.255.053.369.117l2.56 1.299a97.877 97.877 0 005.344 2.409l1.645.65a2.073 2.073 0 002.284-.486c.194-.2.346-.437.448-.697l2.317-5.845a.977.977 0 01.51-.563.949.949 0 011.075.2.975.975 0 01.28.71.985.985 0 01-.085.38l-2.317 5.846a4.074 4.074 0 01-1.47 1.85 3.984 3.984 0 01-2.236.709zm4.883 10.209a.95.95 0 01-.505-.156.97.97 0 01-.346-.403l-2.15-4.864a2.643 2.643 0 00-1.267-1.25 2.589 2.589 0 00-1.761-.153l-.48.15c-1.613.493-4.263 1.298-5.895 1.733l-3.84 1.072a.948.948 0 01-.714-.106.986.986 0 01-.357-1.308.963.963 0 01.56-.463l3.84-1.071c1.625-.455 4.25-1.228 5.856-1.721l.48-.15a4.502 4.502 0 013.085.258 4.596 4.596 0 012.214 2.197l2.15 4.864a.987.987 0 01-.07.924.967.967 0 01-.8.447zm-28.096.487a10.216 10.216 0 01-2.317-.24l-8.25-1.949a.96.96 0 01-.595-.436.986.986 0 01.312-1.341.948.948 0 01.725-.12l8.25 1.95a10.73 10.73 0 005.286-.339l2.067-.785a10.32 10.32 0 015.805-.384l2.323.721c.246.077.45.25.57.48.12.23.146.499.07.748a.978.978 0 01-.472.579.955.955 0 01-.737.07l-2.323-.72a8.591 8.591 0 00-4.57.343l-2.06.767c-1.316.45-2.696.67-4.084.656z" fill="#408F95"/><path d="M11.514 33.5c.728 0 1.318-.598 1.318-1.337s-.59-1.338-1.318-1.338c-.728 0-1.319.6-1.319 1.338 0 .739.59 1.338 1.319 1.338zm12.589 3.358a.951.951 0 01-.6-.21.987.987 0 01-.27-1.184c.094-.2.252-.36.447-.456l3.7-1.812h-5.703a.95.95 0 01-.677-.29.976.976 0 01-.276-.691.973.973 0 01.282-.69.945.945 0 01.684-.278h8.141c1.037 0 1.6.325 1.753.981.154.656-.236 1.221-1.145 1.67l-5.882 2.883a.948.948 0 01-.454.078z" fill="#408F95"/></svg>