<svg fill="none" height="65" viewBox="0 0 63 65" width="63" xmlns="http://www.w3.org/2000/svg"><g fill="#408f95"><path d="m34.5028 34.0437c-.0447-.1614-.1507-.2982-.2947-.3805-.1439-.0823-.3142-.1032-.4734-.0583-.101.0288-.2024.0568-.3042.0838-.0817.0187-.1588.0539-.2268.1035s-.1254.1126-.1688.1852c-.0435.0726-.0721.1533-.0841.2374-.012.084-.0072.1697.0141.2519.0213.0821.0587.159.11.2262.0513.0671.1153.1231.1884.1646.0731.0414.1536.0675.2368.0767.0833.0092.1675.0013.2476-.0233.1082-.0289.2157-.0585.3226-.0887.1589-.0453.2937-.1526.3748-.2985.0811-.146.1018-.3185.0577-.48z"/><path d="m61.0541 37.9705c-2.5682.6503-5.2591.6091-7.8068-.1194.4135-1.2749.6494-2.6021.7008-3.9433.1727-4.7322-1.9247-8.638-6.0656-11.2954-1.9318-1.2251-4.0597-2.098-6.2878-2.5793-1.1859-.2606-2.3514-.439-3.2528-.5549.1941-.7543.4372-1.4947.7278-2.2164.0486-.1126.0638-.2372.0438-.3585-.0201-.1213-.0745-.234-.1568-.3243-.0822-.0904-.1885-.1545-.3061-.1844-.1175-.03-.2411-.0246-.3556.0156-2.983 1.0561-5.6124 2.9435-7.5873 5.4458-2.4684.2856-4.3901 1.2974-5.5588 2.9294-.0046.0066-.0098.0141-.0143.0209-.1221.1852-2.8277 4.193-7.5512 3.709 1.5725-1.4854 4.4216-4.7633 5.1296-9.5462.9347-6.3107-.7536-10.87143-1.8286-13.00965 2.0063.70453 5.6937 2.72335 7.3298 8.27455.0666.2533.8183 2.8843 3.7339 4.6482.142.0859.3117.111.472.0699.1602-.0412.2978-.1453.3824-.2893.0846-.1441.1094-.3164.0688-.479-.0405-.1625-.1431-.3021-.285-.388-2.5386-1.5354-3.1623-3.8662-3.1677-3.887-.002-.0087-.0044-.0175-.007-.0262-2.5257-8.58725-9.4518-9.50143-9.7455-9.53565-.12-.01406-.2415.00755-.3496.06221s-.1983.14002-.2595.24569-.0909.22712-.0853.34957c.0055.12245.046.24064.1164.34019.0371.05133 3.609 5.22009 2.3924 13.43699-.8913 6.0183-5.6291 9.5705-5.6762 9.6058-.096.0704-.1703.1671-.2141.2788s-.0554.2338-.0332.3519c.0221.1181.0769.2274.158.315.0812.0876.1852.1499.3.1797.7584.1998 1.5386.3021 2.3221.3046 4.7956 0 7.6228-3.9991 7.8239-4.2934.776-1.0815 1.9402-1.8154 3.4676-2.1931-1.4062 2.1356-2.4542 4.4927-3.1017 6.9757-.2495 1.0207-.6707 1.99-1.2451 2.8653-.3851.5865-.8453 1.1184-1.3686 1.5819-3.4931.0081-6.9827-.2254-10.4445-.6989-.0089-.0014-.0178-.0025-.0267-.0034-8.76438-.9479-12.05539 3.7934-12.19121 3.9957-.05316.0792-.0879.1695-.10161.2643-.0137.0948-.00601.1915.02249.2828.98742 3.164 2.58858 6.0956 4.70925 8.6223 2.26911 4.0326 6.64298 7.2512 9.92268 9.245 3.679 2.2364 8.9712 3.5076 12.2087 3.5076 3.7481-.0089 7.4417-.9116 10.7828-2.6354 1.1942.8138 3.2545 1.7808 6.3093 1.7808 1.3845-.0104 2.7629-.1871 4.1064-.5264.1154-.0286.2203-.0899.3025-.1768.0821-.0869.1382-.1957.1615-.3138.0234-.1181.013-.2405-.0298-.3528-.0428-.1124-.1162-.21-.2118-.2814-.0148-.0111-1.4959-1.1347-2.6984-3.3884-.0389-.0731-.0917-.1377-.1552-.1901s-.1366-.0916-.215-.1154c-.0785-.0237-.1608-.0316-.2422-.023-.0814.0085-.1604.0333-.2324.0728s-.1356.093-.1873.1575c-.0516.0645-.0902.1387-.1135.2183-.0234.0796-.031.1631-.0225.2458.0084.0826.0329.1627.0719.2358.5666 1.0688 1.2739 2.0545 2.1023 2.93-3.7059.655-6.1962-.1375-7.6712-.9646 4.9911-2.8804 8.2988-6.8736 9.6909-8.7759.2392.0128.4829.0205.7312.0205 1.5705.0146 3.1274-.2958 4.5756-.9123 3.072-1.3372 5.3445-4.0933 6.754-8.1917.0378-.1101.0448-.2287.0203-.3427-.0244-.114-.0795-.2189-.1591-.3031-.0795-.0842-.1805-.1444-.2916-.1741-.1112-.0296-.2283-.0275-.3384.0062zm-33.0428 20.7344c-2.4301 0-8.0766-1.206-11.5671-3.328-3.0483-1.8532-7.07234-4.7909-9.26474-8.4149 1.10528-.9117 4.93164-3.3363 11.21864.1862.1393.0752 3.4683 1.8614 8.4602 2.7135 4.5552.7775 11.3816.87 18.1792-3.0255 1.0547.4134 2.1509.7084 3.2689.8798-2.6502 3.4222-9.7118 10.9889-20.2951 10.9889zm26.5746-12.8949c-4.4326 1.9355-9.2848-.2302-9.3333-.2523-.0901-.0421-.189-.0614-.288-.0562-.0991.0051-.1955.0346-.2809.0859-6.5499 3.8577-13.1731 3.7793-17.5759 3.0345-4.8017-.8123-8.0893-2.5712-8.1144-2.5848-4.3336-2.4279-7.6341-2.2175-9.64062-1.6136-1.05515.3113-2.04168.8251-2.90615 1.5134-1.74138-2.2175-3.09003-4.725-3.98587-7.4108.751-.8984 3.86413-3.9698 10.83614-3.2196.5596.0848 9.8657 1.4546 17.7292.1802.1612-.0287.3047-.1206.3997-.2559.095-.1352.1338-.3029.108-.4669-.0258-.1639-.1141-.3111-.2459-.4095-.1318-.0985-.2964-.1404-.4584-.1168-1.7013.2647-3.4169.4244-5.1373.4784.2212-.2675.4287-.5464.6215-.8356.6547-.9956 1.1352-2.0984 1.4204-3.2598.5643-2.2255 2.8732-9.392 9.6922-12.5014-.8844 2.7384-2.2378 8.8814 1.9853 12.1663-.751.9755-1.8506 1.7994-3.2962 2.46-.0747.0341-.1419.0827-.198.1432s-.0999.1316-.1289.2092c-.029.0777-.0426.1604-.0401.2434s.021.1647.0547.2404c.0336.0757.0815.144.1411.2009s.1297.1013.2062.1308c.0765.0294.158.0432.2398.0407s.1623-.0214.2369-.0555c2.8148-1.2861 4.514-3.1556 5.0501-5.5569.0022-.0096.0042-.0188.0057-.0289.0185-.1031.4158-2.5489-1.991-4.4886-.1295-.1043-.2945-.1521-.4587-.133s-.3143.1037-.4171.2351c-.1028.1313-.15.2988-.1311.4654.0188.1667.1022.3189.2316.4233 1.755 1.4139 1.5628 3.1095 1.5408 3.2665-.0882.3872-.2172.7637-.3849 1.1229-2.6065-2.1311-2.5385-5.7812-2.0149-8.4871.892.1119 2.0783.2894 3.2818.5543.0066.0017.0142.0032.0211.0045 2.0848.4595 4.076 1.28 5.8862 2.4256 3.7767 2.4364 5.6118 5.8545 5.4545 10.1591-.0465 1.2158-.2595 2.4191-.6327 3.5753-.4799-.1972-.9469-.4251-1.3983-.6823-.1441-.0823-.3145-.1031-.4738-.0579-.1592.0452-.2942.1528-.3753.299-.0811.1463-.1016.3192-.057.4808.0445.1616.1505.2986.2947.3808 4.0262 2.2956 8.1938 1.9555 10.1772 1.596-1.2931 3.147-3.1907 5.2831-5.6501 6.3571z"/><path d="m19.7411 38.888-.7485.304c-.0765.0306-.1462.0761-.2052.1341s-.1062.1272-.1387.2037c-.0326.0765-.0499.1588-.051.2422-.0011.0833.0141.1661.0446.2434.0305.0774.0758.1479.1333.2075.0575.0595.126.1069.2016.1395s.1568.0497.2389.0503c.0822.0006.1636-.0152.2397-.0466l.7486-.3041c.0764-.0305.1461-.0761.2052-.134.059-.058.1061-.1273.1387-.2038.0325-.0765.0498-.1588.0509-.2421.0011-.0834-.014-.1661-.0446-.2435-.0305-.0774-.0758-.1479-.1333-.2074-.0574-.0596-.126-.107-.2016-.1396s-.1568-.0496-.2389-.0503c-.0821-.0006-.1636.0153-.2397.0467z"/><path d="m32.4096 39.8868c.065-.1523.0684-.3244.0094-.4793-.0589-.1548-.1755-.2799-.3245-.3483-.149-.0685-.3186-.0747-.4721-.0174s-.2787.1735-.3485.3236c-.0576.1286-1.3829 3.1777.972 5.7226.1174.1146.2724.181.4352.1862s.3217-.0511.4459-.158c.0597-.0568.1079-.125.1416-.2007s.0524-.1574.055-.2404-.011-.1658-.04-.2435c-.0289-.0777-.0727-.1488-.1288-.2093-1.7721-1.9152-.7905-4.2321-.7452-4.3355z"/><path d="m35.962 39.1864c.0682-.1528.0737-.3268.0155-.4838-.0583-.1569-.1757-.2839-.3262-.3531-.1506-.0692-.3221-.0748-.4768-.0157-.1546.0592-.2798.1782-.348.331-.0574.1286-1.3828 3.1776.9723 5.7225.1228.1328.6485.2287.881.0282.0609-.056.1101-.124.1446-.1997.0344-.0758.0535-.1578.0561-.2412s-.0113-.1665-.041-.2443c-.0298-.0778-.0746-.1488-.1319-.2086-1.7714-1.9143-.7915-4.2296-.7456-4.3353z"/><path d="m39.1683 37.8382c.0651-.1523.0685-.3244.0095-.4792-.0589-.1549-.1755-.28-.3245-.3484s-.3186-.0747-.4721-.0174-.2787.1736-.3485.3237c-.0577.1286-1.3829 3.1776.972 5.7227.1227.1327.6439.2444.8809.0282.0603-.0565.1088-.1246.1429-.2003.034-.0757.0529-.1576.0555-.2407.0026-.0832-.0112-.1661-.0405-.2439-.0292-.0777-.0735-.1488-.1301-.209-1.7729-1.9161-.7892-4.2349-.7451-4.3357z"/></g></svg>