<svg width="64" height="66" viewBox="0 0 64 66" fill="none" xmlns="http://www.w3.org/2000/svg">
<path d="M16.8257 41.8201C16.2331 41.8068 15.6545 41.6342 15.1489 41.3201L4.81293 35.2024C4.34535 35.0057 3.94574 34.6727 3.6646 34.2456C3.38345 33.8185 3.2334 33.3164 3.2334 32.8028C3.2334 32.2891 3.38345 31.787 3.6646 31.3599C3.94574 30.9328 4.34535 30.5998 4.81293 30.4031L9.01773 27.9353C10.8771 26.9045 12.8518 26.1043 14.8993 25.5519L22.3233 23.74C24.4167 23.2945 26.5679 23.2002 28.6913 23.4607L38.2273 24.9154C39.9298 25.0653 41.6361 24.675 43.1105 23.7984L46.5025 21.4799C46.7139 21.3353 46.9732 21.2817 47.2234 21.331C47.4737 21.3803 47.6944 21.5285 47.8369 21.743C47.9795 21.9574 48.0323 22.2205 47.9837 22.4745C47.9351 22.7284 47.7891 22.9523 47.5777 23.097L44.1601 25.4155C42.294 26.556 40.1124 27.0484 37.9457 26.8183L28.4097 25.3895C26.5313 25.1697 24.6305 25.253 22.7777 25.6363L15.3601 27.4677C13.492 27.9757 11.6897 28.706 9.99053 29.6433L5.76013 32.0916C5.60527 32.1507 5.46648 32.2463 5.3552 32.3705C5.24392 32.4947 5.16335 32.644 5.12013 32.806C5.16335 32.9681 5.24392 33.1173 5.3552 33.2416C5.46648 33.3658 5.60527 33.4613 5.76013 33.5204L16.1025 39.638C16.2314 39.7395 16.3816 39.8093 16.5415 39.842C16.7014 39.8747 16.8666 39.8693 17.0241 39.8264C17.1424 39.7125 17.2329 39.5722 17.2885 39.4166C17.344 39.2611 17.3631 39.0945 17.3441 38.9302L17.4465 32.0981C17.4465 31.8398 17.5477 31.592 17.7277 31.4093C17.9077 31.2266 18.1519 31.124 18.4065 31.124C18.6611 31.124 18.9053 31.2266 19.0854 31.4093C19.2654 31.592 19.3665 31.8398 19.3665 32.0981L19.2833 38.9561C19.3176 39.4656 19.217 39.9751 18.9919 40.4319C18.7668 40.8886 18.4255 41.276 18.0033 41.5539C17.6405 41.7457 17.2345 41.8375 16.8257 41.8201Z" fill="#408F95"/>
<path d="M54.6371 33.4035C54.1172 33.4049 53.602 33.3035 53.1203 33.1048L51.4755 32.4554C49.8883 31.8059 47.4371 30.7019 45.9971 29.9875L43.4371 28.6887C43.3178 28.6364 43.2101 28.5601 43.1206 28.4643C43.0312 28.3686 42.9619 28.2554 42.9168 28.1316C42.8718 28.0078 42.852 27.876 42.8587 27.7443C42.8653 27.6125 42.8983 27.4835 42.9556 27.3651C43.0129 27.2466 43.0933 27.1412 43.1919 27.0552C43.2905 26.9693 43.4053 26.9045 43.5294 26.8649C43.6534 26.8254 43.784 26.8117 43.9134 26.8249C44.0428 26.8381 44.1682 26.8778 44.2819 26.9417L46.8419 28.2406C48.2435 28.9354 50.6435 30.02 52.1859 30.6499L53.8307 31.2994C54.0866 31.404 54.3604 31.4565 54.6363 31.4537C54.9121 31.451 55.1848 31.393 55.4386 31.2833C55.6924 31.1735 55.9224 31.014 56.1154 30.814C56.3085 30.6139 56.4607 30.3772 56.5635 30.1174L58.8803 24.2725C58.9235 24.1485 58.9909 24.0346 59.0786 23.9378C59.1662 23.8409 59.2723 23.7631 59.3904 23.7089C59.5085 23.6548 59.6362 23.6255 59.7658 23.6228C59.8954 23.6201 60.0242 23.644 60.1444 23.6931C60.2646 23.7423 60.3737 23.8156 60.4653 23.9087C60.5568 24.0018 60.6288 24.1128 60.6769 24.2349C60.7251 24.357 60.7484 24.4877 60.7454 24.6192C60.7424 24.7507 60.7132 24.8802 60.6595 24.9999L58.3427 30.8448C58.0446 31.596 57.5331 32.2403 56.8733 32.6959C56.2135 33.1515 55.4352 33.3978 54.6371 33.4035Z" fill="#408F95"/>
<path d="M59.5197 43.6126C59.3406 43.6094 59.1659 43.5553 59.0155 43.4566C58.8651 43.3579 58.7449 43.2185 58.6685 43.0541L56.5181 38.1898C56.2511 37.6369 55.8036 37.195 55.2517 36.9392C54.6997 36.6834 54.0775 36.6297 53.4909 36.7871L53.0109 36.9364C51.3981 37.43 48.7485 38.2353 47.1165 38.6704L43.2765 39.742C43.034 39.8023 42.7779 39.7644 42.5625 39.6363C42.347 39.5082 42.1893 39.2999 42.1227 39.0557C42.0561 38.8116 42.0858 38.5507 42.2057 38.3284C42.3255 38.1061 42.5259 37.9399 42.7645 37.8651L46.6045 36.7936C48.2301 36.339 50.8541 35.5661 52.4605 35.0726L52.9405 34.9232C53.9673 34.6415 55.0588 34.7327 56.0263 35.1809C56.9939 35.6292 57.7768 36.4063 58.2397 37.3781L60.3901 42.2423C60.4549 42.3901 60.4825 42.552 60.4702 42.7133C60.458 42.8746 60.4063 43.0302 60.32 43.1662C60.2336 43.3022 60.1152 43.4142 59.9755 43.4922C59.8358 43.5701 59.6791 43.6115 59.5197 43.6126Z" fill="#408F95"/>
<path d="M31.4239 44.0997C30.6452 44.1082 29.868 44.0276 29.1071 43.8594L20.8575 41.9111C20.6097 41.8517 20.3953 41.6948 20.2615 41.475C20.1276 41.2551 20.0853 40.9904 20.1439 40.7389C20.2025 40.4874 20.3571 40.2698 20.5737 40.134C20.7904 39.9982 21.0513 39.9553 21.2991 40.0148L29.5487 41.9631C31.3113 42.2941 33.1273 42.1781 34.8351 41.6254L36.9023 40.8395C38.7627 40.1577 40.7754 40.0248 42.7071 40.4564L45.0303 41.1772C45.2756 41.2539 45.4808 41.4263 45.6008 41.6565C45.7208 41.8866 45.7458 42.1558 45.6703 42.4047C45.5948 42.6536 45.4249 42.8618 45.198 42.9836C44.9712 43.1054 44.706 43.1308 44.4607 43.0541L42.1375 42.3332C40.6113 42.0321 39.0335 42.1509 37.5679 42.6774L35.5071 43.4438C34.1919 43.8931 32.8116 44.1149 31.4239 44.0997Z" fill="#408F95"/>
<path d="M11.5137 33.5009C12.2418 33.5009 12.8321 32.9019 12.8321 32.1631C12.8321 31.4242 12.2418 30.8253 11.5137 30.8253C10.7856 30.8253 10.1953 31.4242 10.1953 32.1631C10.1953 32.9019 10.7856 33.5009 11.5137 33.5009Z" fill="#408F95"/>
<path d="M24.1029 36.8585C23.8852 36.8594 23.6737 36.7852 23.5031 36.6482C23.3324 36.5111 23.2127 36.3193 23.1636 36.1041C23.1145 35.889 23.1389 35.6633 23.2328 35.464C23.3267 35.2648 23.4846 35.1039 23.6805 35.0076L27.3797 33.1957H24.9605H21.6773C21.5512 33.1948 21.4265 33.1688 21.3104 33.1191C21.1942 33.0693 21.0889 32.9968 21.0003 32.9058C20.9118 32.8147 20.8417 32.7068 20.7943 32.5883C20.7468 32.4698 20.7228 32.343 20.7237 32.215C20.7228 32.0866 20.7473 31.9593 20.7957 31.8407C20.8441 31.722 20.9155 31.6144 21.0055 31.5242C21.0956 31.434 21.2026 31.363 21.3202 31.3155C21.4378 31.2679 21.5635 31.2448 21.6901 31.2474H24.9733C25.9781 31.2474 27.6293 31.2474 28.6341 31.2474H29.8309C30.8677 31.2474 31.4309 31.5721 31.5845 32.228C31.7381 32.884 31.3477 33.449 30.4389 33.8971L24.5573 36.7805C24.4143 36.8436 24.2583 36.8703 24.1029 36.8585Z" fill="#408F95"/>
</svg>
