<svg width="61" height="56" viewBox="0 0 61 56" fill="none" xmlns="http://www.w3.org/2000/svg">
<path d="M55.7626 24.9055C55.7561 24.5942 55.6719 24.2897 55.5179 24.0204C55.085 23.255 54.1325 22.768 52.6891 22.5726C51.8539 22.4595 51.0686 22.321 50.355 22.1609C48.1676 21.6668 45.9261 21.464 43.6871 21.5577C41.8034 21.6296 39.9247 21.8025 38.0589 22.0757C37.6636 22.1367 37.2045 22.211 36.6955 22.2937C32.9157 22.9061 25.2258 24.1516 20.4493 23.1914C19.8004 21.9483 19.6886 20.8376 20.1174 19.887C21.0484 17.8223 24.2006 16.8551 25.3419 16.5666C26.6929 18.6611 28.4101 19.95 30.4502 20.4C34.2449 21.2368 37.74 18.8528 37.887 18.7512C37.9993 18.6733 38.084 18.561 38.1287 18.4307C38.1735 18.3004 38.176 18.159 38.1359 18.0272C38.0957 17.8953 38.015 17.78 37.9056 17.698C37.7962 17.6161 37.6639 17.5718 37.5279 17.5717C37.1831 17.547 36.8504 17.4321 36.5624 17.238C35.9271 16.8463 35.4075 16.2882 35.0582 15.6223C33.7579 13.1911 31.8808 12.2848 30.8026 11.9528C32.9971 6.61926 30.1438 3.13315 30.0152 2.98092L29.9977 2.96182C29.3095 2.20962 29.6965 0.846008 29.7001 0.834547C29.7362 0.714509 29.737 0.586417 29.7025 0.465912C29.668 0.345406 29.5997 0.237701 29.5058 0.155948C29.412 0.0741952 29.2968 0.0219311 29.1742 0.0055379C29.0516 -0.0108553 28.9269 0.00933183 28.8154 0.063634C25.7848 1.53574 23.9802 4.27825 23.5958 7.99434C23.4591 9.40501 23.5082 10.8279 23.7417 12.2254C22.2798 12.1258 20.8122 12.1578 19.3558 12.3209C18.7802 12.3782 7.8524 13.567 3.00233 22.3311C0.86774 26.1884 0.66821 30.8194 2.46812 34.7188C3.93635 37.9003 6.36365 40.3484 9.68581 42.0087C8.71483 43.0519 7.91764 44.2485 7.32553 45.5515C5.27019 50.0701 0.925528 49.4071 0.74294 49.3767C0.608302 49.3536 0.469915 49.375 0.348196 49.4378C0.226477 49.5006 0.127874 49.6015 0.0669346 49.7255C0.00599538 49.8494 -0.0140521 49.99 0.00975009 50.1265C0.0335523 50.2629 0.0999435 50.388 0.199128 50.4832C2.26445 52.4659 4.89917 53.6339 7.46143 53.4502C12.3232 53.1016 16.3027 48.8398 17.7869 47.0057C18.3981 46.2403 19.0769 45.5331 19.8148 44.8929C19.8425 44.8957 19.8703 44.8967 19.8981 44.8958C22.9888 44.6958 26.9524 44.913 26.9826 44.9149C27.0872 44.9224 27.1896 44.9275 27.2939 44.934C26.1099 45.7858 25.1314 46.8986 24.4318 48.189C23.4091 50.0508 20.7889 53.9384 16.7348 53.9661C17.4647 53.4066 18.0354 52.6607 18.3885 51.8044C18.7416 50.9481 18.8645 50.0121 18.7448 49.0919C18.7369 49.0065 18.7124 48.9235 18.6726 48.8479C18.6328 48.7722 18.5785 48.7053 18.513 48.6511C18.4475 48.597 18.372 48.5566 18.2909 48.5323C18.2098 48.5081 18.1248 48.5004 18.0408 48.5099C17.9567 48.5193 17.8754 48.5456 17.8015 48.5873C17.7276 48.6289 17.6627 48.6851 17.6104 48.7525C17.5581 48.8199 17.5196 48.8972 17.497 48.9799C17.4745 49.0625 17.4684 49.1489 17.4791 49.234C17.5993 50.1982 17.3768 51.1743 16.8516 51.987C16.2829 52.8118 15.4504 53.4113 14.4954 53.6838C14.3561 53.7137 14.2306 53.7903 14.1392 53.9011C14.0478 54.0119 13.9956 54.1507 13.991 54.2951C13.9864 54.4396 14.0297 54.5815 14.114 54.698C14.1982 54.8146 14.3185 54.8991 14.4557 54.9381C15.1961 55.1526 15.9619 55.2631 16.7318 55.2665C21.4349 55.2665 24.3956 50.9088 25.5443 48.8174C26.2127 47.5737 27.1819 46.5228 28.3606 45.7638C28.8069 45.4846 29.2751 45.2432 29.7604 45.0419C29.7679 45.0387 29.7741 45.0339 29.7814 45.0305C29.9806 45.033 30.1799 45.0358 30.3768 45.0358C43.2886 45.0358 51.0942 39.6194 53.9889 37.1385C54.6775 36.5478 55.5498 36.2231 56.4516 36.2217H58.028C58.689 36.2307 59.3375 36.0384 59.8897 35.6697C61.2935 34.7078 61.0987 33.1562 60.7527 32.3352C60.7768 31.3475 60.6221 26.7075 55.7626 24.9055ZM16.8028 46.1859C15.7272 47.5147 11.8695 51.8739 7.38143 52.1607C5.64666 52.2714 3.97758 51.7628 2.40016 50.6467C4.22096 50.428 6.93456 49.4949 8.48713 46.0816C8.50426 46.0419 10.2387 42.0929 12.9538 41.4042C13.1164 41.3615 13.2558 41.2553 13.3417 41.1088C13.4276 40.9623 13.4529 40.7873 13.4122 40.6219C13.3714 40.4565 13.268 40.3142 13.1243 40.2259C12.9806 40.1375 12.8084 40.1104 12.6451 40.1504C11.9562 40.3347 11.3084 40.6511 10.7367 41.0825C7.42849 39.5529 5.0332 37.23 3.62143 34.1708C1.99508 30.648 2.1788 26.4586 4.11273 22.9641C8.65767 14.7507 19.3786 13.6169 19.4863 13.6066C19.4891 13.6066 19.4916 13.6052 19.4944 13.6049C19.4972 13.6045 19.4998 13.6049 19.5025 13.6049C19.5296 13.6016 22.2164 13.279 24.4504 13.6031C24.5545 13.6181 24.6606 13.6067 24.7593 13.57C24.858 13.5332 24.9462 13.4723 25.016 13.3926C25.0859 13.3129 25.1352 13.2169 25.1597 13.1132C25.1841 13.0094 25.1829 12.9012 25.1561 12.798C24.8082 11.2557 24.7101 9.66624 24.8657 8.09195C25.165 5.27914 26.3249 3.17842 28.3188 1.83009C28.3178 2.56349 28.5778 3.27261 29.0511 3.8269C29.2339 4.05229 31.6999 7.23966 29.3259 12.1247C29.2802 12.2188 29.2577 12.3227 29.2604 12.4276C29.2631 12.5324 29.2909 12.635 29.3414 12.7265C29.392 12.818 29.4637 12.8956 29.5504 12.9527C29.6372 13.0097 29.7363 13.0445 29.8392 13.054C29.8644 13.0563 32.3768 13.3203 33.9397 16.2396C34.3984 17.1099 35.0796 17.8386 35.9119 18.3491C35.9187 18.353 35.9254 18.3572 35.9322 18.3614C34.7062 18.9296 32.7251 19.5838 30.7128 19.1361C28.9058 18.735 27.3826 17.5125 26.1861 15.5016C26.119 15.3889 26.0196 15.2997 25.9011 15.246C25.7827 15.1922 25.6509 15.1764 25.5234 15.2007C25.314 15.2405 20.3761 16.2154 18.9611 19.3468C18.4905 20.3903 18.4619 21.5302 18.873 22.7487C18.2279 22.5226 17.6382 22.1584 17.1439 21.6807C16.7715 21.3105 16.4889 20.8576 16.3183 20.3578C16.2926 20.2767 16.2514 20.2016 16.197 20.1367C16.1426 20.0719 16.0761 20.0186 16.0013 19.9799C15.9266 19.9412 15.845 19.9179 15.7613 19.9113C15.6777 19.9047 15.5935 19.915 15.5138 19.9416C15.434 19.9681 15.3602 20.0104 15.2967 20.066C15.2331 20.1216 15.1809 20.1894 15.1433 20.2655C15.1056 20.3416 15.0831 20.4245 15.0772 20.5094C15.0712 20.5944 15.0818 20.6797 15.1085 20.7604C15.3396 21.4499 15.7258 22.0753 16.2364 22.5871C19.8671 26.3295 30.9451 24.5342 36.8967 23.5698C37.4018 23.4879 37.8567 23.4141 38.25 23.3538C40.0706 23.0875 41.9038 22.9191 43.7419 22.8491C45.8702 22.7599 48.0008 22.9525 50.08 23.4222C50.8286 23.5901 51.6497 23.7352 52.5205 23.8531C53.8503 24.033 54.2125 24.3636 54.4875 24.8977C54.1884 24.9953 53.8796 25.0594 53.5667 25.0887C53.0597 25.1389 52.5486 25.1268 52.0444 25.0528C48.7179 24.6291 45.3413 25.1733 42.3079 26.6221C40.1967 27.6661 38.3412 29.1743 36.8762 31.0369C35.4934 32.7606 31.6433 36.7752 25.7733 36.8228C25.6063 36.8263 25.4474 36.8963 25.3307 37.0176C25.2141 37.1389 25.1491 37.3019 25.1497 37.4714C25.1504 37.6409 25.2167 37.8034 25.3343 37.9238C25.4519 38.0441 25.6114 38.1128 25.7784 38.115H25.7837C32.1944 38.0632 36.3674 33.7183 37.8637 31.8527C39.2104 30.1383 40.9164 28.7497 42.858 27.7879C45.6667 26.4453 48.7938 25.9409 51.8744 26.3335C52.4803 26.4213 53.0944 26.4347 53.7035 26.3734C54.1846 26.3307 54.6574 26.219 55.1076 26.0415C58.2168 27.0979 59.1332 29.4414 59.3914 30.9733C58.2853 30.2141 56.9887 29.7911 55.6538 29.7541H55.6463C48.5758 29.1288 42.6804 34.6042 42.2251 35.0388C36.9626 39.3374 28.3898 40.4252 28.3044 40.4359C28.2919 40.4375 28.2791 40.4396 28.2667 40.4417L23.8272 41.2578C23.5885 41.2945 21.6636 41.6479 19.0891 43.8218C18.2545 44.5341 17.4889 45.3257 16.8028 46.1859ZM53.1405 36.1745C51.4334 37.6074 49.5684 38.8347 47.5828 39.8318C48.1036 38.9825 48.5335 38.0793 48.8653 37.1374C48.9234 36.9765 48.9161 36.7988 48.8451 36.6433C48.774 36.4879 48.645 36.3674 48.4865 36.3085C48.408 36.2793 48.3246 36.2661 48.241 36.2696C48.1575 36.2732 48.0754 36.2933 47.9996 36.329C47.8464 36.4011 47.7277 36.532 47.6696 36.6929C46.3896 40.2394 44.6931 41.1272 44.6505 41.1486C44.6449 41.1513 44.6404 41.1553 44.6349 41.1579C43.4666 41.6172 42.2753 42.0139 41.066 42.3464C41.836 41.3685 42.4179 40.2523 42.7813 39.0561C43.894 35.5956 45.0966 34.4228 45.2743 34.2637C46.6541 33.3033 48.1437 32.5165 49.7105 31.9207C49.3236 32.4888 48.9907 33.0928 48.7162 33.7246C48.6795 33.8016 48.6587 33.8854 48.655 33.9709C48.6513 34.0563 48.6649 34.1417 48.6949 34.2216C48.7248 34.3016 48.7705 34.3745 48.8292 34.4359C48.8879 34.4972 48.9584 34.5458 49.0362 34.5786C49.1922 34.6265 49.3594 34.6206 49.5117 34.5619C49.664 34.5031 49.7928 34.3948 49.878 34.2539C50.9468 31.8401 52.1161 31.2816 52.3038 31.2048C53.3788 31.0049 54.4752 30.9512 55.5642 31.0452C55.5874 31.0473 55.6126 31.0478 55.6361 31.0476H55.6532C55.2547 31.7001 54.9557 32.41 54.7663 33.1531C54.4521 34.2702 53.8967 35.3023 53.1405 36.1745ZM34.6838 43.5284C35.078 43.0641 35.401 42.5421 35.6418 41.9801C35.6448 41.9728 35.648 41.9652 35.6508 41.9579C35.6572 41.9417 36.2707 40.3889 37.1379 39.4114C38.9841 38.6842 40.735 37.7291 42.351 36.5674C42.0568 37.2495 41.7964 37.9461 41.571 38.6546C40.4404 42.1716 38.4011 42.9439 38.1882 43.0159C37.0774 43.23 35.9109 43.4052 34.6838 43.5289V43.5284ZM21.6862 43.5297C23.0804 42.6914 23.9877 42.5409 24.0167 42.5365C24.0211 42.5365 24.025 42.534 24.0293 42.5334C24.0337 42.5328 24.0399 42.5334 24.0453 42.5319L28.1075 41.785C27.6992 42.5026 27.1411 43.1207 26.4723 43.596C25.538 43.5559 23.6324 43.4907 21.6862 43.5303V43.5297ZM28.2932 43.6944C28.8698 43.0678 29.3246 42.3363 29.6335 41.5384C31.4828 41.2113 33.3069 40.7517 35.0923 40.1632C34.8608 40.5867 34.6534 41.0233 34.4711 41.4708C33.8052 43.0016 32.7341 43.5624 32.4382 43.6928C31.117 43.7545 29.7361 43.7601 28.2929 43.6949L28.2932 43.6944ZM59.1772 34.5993C58.8355 34.8231 58.4356 34.9383 58.029 34.9299H56.4516C56.1001 34.9311 55.7497 34.9695 55.4061 35.0445C55.6507 34.5481 55.8476 34.0288 55.9941 33.4941C56.3518 32.1761 56.8536 31.521 57.0724 31.2837C58.0291 31.5615 58.8943 32.096 59.5768 32.8309C59.6894 33.0979 60.0071 34.0308 59.1768 34.5998L59.1772 34.5993Z" fill="#408F95"/>
<path d="M15.632 18.3503C15.7106 18.3793 15.7941 18.3922 15.8776 18.3884C15.9612 18.3846 16.0432 18.3641 16.1189 18.3281C16.1946 18.2921 16.2626 18.2412 16.319 18.1785C16.3753 18.1158 16.4189 18.0424 16.4473 17.9626C16.4836 17.8607 16.5229 17.7598 16.5649 17.6598C16.5976 17.5818 16.6149 17.4979 16.6157 17.4131C16.6165 17.3282 16.6008 17.2441 16.5695 17.1654C16.5383 17.0867 16.492 17.015 16.4335 16.9545C16.3749 16.8939 16.3052 16.8456 16.2282 16.8124C16.1513 16.7792 16.0687 16.7617 15.9851 16.7609C15.9015 16.7601 15.8185 16.776 15.741 16.8077C15.6634 16.8394 15.5928 16.8864 15.5331 16.9458C15.4734 17.0052 15.4259 17.076 15.3931 17.154C15.3419 17.2761 15.2939 17.3995 15.2499 17.5231C15.2214 17.6028 15.2088 17.6875 15.2126 17.7723C15.2164 17.857 15.2366 17.9402 15.2721 18.017C15.3076 18.0938 15.3576 18.1628 15.4194 18.22C15.4811 18.2772 15.5534 18.3215 15.632 18.3503Z" fill="#408F95"/>
<path d="M32.2644 31.1229C32.3978 31.1231 32.5279 31.0804 32.636 31.001L33.2451 30.556C33.3797 30.4549 33.4696 30.304 33.4954 30.1361C33.5212 29.9682 33.4808 29.7968 33.3829 29.6589C33.285 29.521 33.1375 29.4278 32.9724 29.3995C32.8072 29.3712 32.6378 29.41 32.5006 29.5075L31.8917 29.9526C31.7823 30.0325 31.7007 30.1455 31.6587 30.2754C31.6167 30.4053 31.6164 30.5454 31.6578 30.6756C31.6992 30.8057 31.7803 30.9191 31.8893 30.9995C31.9983 31.0799 32.1296 31.1231 32.2644 31.1229Z" fill="#408F95"/>
<path d="M21.4239 30.6779C21.7756 30.6779 22.0607 30.3886 22.0607 30.0317C22.0607 29.6748 21.7756 29.3855 21.4239 29.3855C21.0722 29.3855 20.7871 29.6748 20.7871 30.0317C20.7871 30.3886 21.0722 30.6779 21.4239 30.6779Z" fill="#408F95"/>
<path d="M14.5643 35.6319C14.439 35.6445 14.3202 35.6945 14.2228 35.7756C14.1255 35.8568 14.0541 35.9653 14.0176 36.0876C13.9811 36.2099 13.9811 36.3405 14.0177 36.4627C14.0543 36.585 14.1258 36.6935 14.2232 36.7746C14.3205 36.8556 14.4394 36.9055 14.5647 36.9181C14.6901 36.9306 14.8162 36.9051 14.9273 36.8448C15.0383 36.7846 15.1293 36.6923 15.1887 36.5796C15.248 36.4668 15.2731 36.3388 15.2608 36.2116C15.2526 36.1272 15.2281 36.0452 15.1886 35.9703C15.1492 35.8954 15.0956 35.8292 15.0309 35.7754C14.9662 35.7215 14.8917 35.6811 14.8117 35.6565C14.7316 35.6319 14.6475 35.6236 14.5643 35.6319Z" fill="#408F95"/>
<path d="M11.287 28.1631C11.1616 28.1757 11.0428 28.2257 10.9455 28.3068C10.8482 28.3879 10.7768 28.4965 10.7402 28.6188C10.7037 28.7411 10.7038 28.8716 10.7404 28.9939C10.777 29.1162 10.8485 29.2247 10.9458 29.3057C11.0432 29.3868 11.1621 29.4367 11.2874 29.4492C11.4127 29.4617 11.5389 29.4362 11.6499 29.376C11.761 29.3157 11.852 29.2234 11.9113 29.1107C11.9707 28.998 11.9958 28.87 11.9834 28.7428C11.9753 28.6583 11.9507 28.5763 11.9113 28.5014C11.8719 28.4265 11.8183 28.3603 11.7536 28.3064C11.6889 28.2526 11.6144 28.2122 11.5343 28.1876C11.4543 28.163 11.3702 28.1547 11.287 28.1631Z" fill="#408F95"/>
</svg>
