<svg width="63" height="65" viewBox="0 0 63 65" fill="none" xmlns="http://www.w3.org/2000/svg">
<path d="M34.5028 34.0437C34.4581 33.8823 34.3521 33.7455 34.2081 33.6632C34.0642 33.5809 33.8939 33.56 33.7347 33.6049C33.6337 33.6337 33.5323 33.6617 33.4305 33.6887C33.3488 33.7074 33.2717 33.7426 33.2037 33.7922C33.1357 33.8418 33.0783 33.9048 33.0349 33.9774C32.9914 34.05 32.9628 34.1307 32.9508 34.2148C32.9388 34.2988 32.9436 34.3845 32.9649 34.4667C32.9862 34.5488 33.0236 34.6257 33.0749 34.6929C33.1262 34.76 33.1902 34.816 33.2633 34.8575C33.3364 34.8989 33.4169 34.925 33.5001 34.9342C33.5834 34.9434 33.6676 34.9355 33.7477 34.9109C33.8559 34.882 33.9634 34.8524 34.0703 34.8222C34.2292 34.7769 34.364 34.6696 34.4451 34.5237C34.5262 34.3777 34.5469 34.2052 34.5028 34.0437Z" fill="#408F95"/>
<path d="M61.0541 37.9705C58.4859 38.6208 55.795 38.5796 53.2473 37.8511C53.6608 36.5762 53.8967 35.249 53.9481 33.9078C54.1208 29.1756 52.0234 25.2698 47.8825 22.6124C45.9507 21.3873 43.8228 20.5144 41.5947 20.0331C40.4088 19.7725 39.2433 19.5941 38.3419 19.4782C38.536 18.7239 38.7791 17.9835 39.0697 17.2618C39.1183 17.1492 39.1335 17.0246 39.1135 16.9033C39.0934 16.782 39.039 16.6693 38.9567 16.579C38.8745 16.4886 38.7682 16.4245 38.6506 16.3946C38.5331 16.3646 38.4095 16.37 38.295 16.4102C35.312 17.4663 32.6826 19.3537 30.7077 21.856C28.2393 22.1416 26.3176 23.1534 25.1489 24.7854C25.1443 24.792 25.1391 24.7995 25.1346 24.8063C25.0125 24.9915 22.3069 28.9993 17.5834 28.5153C19.1559 27.0299 22.005 23.752 22.713 18.9691C23.6477 12.6584 21.9594 8.09767 20.8844 5.95945C22.8907 6.66398 26.5781 8.6828 28.2142 14.234C28.2808 14.4873 29.0325 17.1183 31.9481 18.8822C32.0901 18.9681 32.2598 18.9932 32.4201 18.9521C32.5803 18.9109 32.7179 18.8068 32.8025 18.6628C32.8871 18.5187 32.9119 18.3464 32.8713 18.1838C32.8308 18.0213 32.7282 17.8817 32.5863 17.7958C30.0477 16.2604 29.424 13.9296 29.4186 13.9088C29.4166 13.9001 29.4142 13.8913 29.4116 13.8826C26.8859 5.29535 19.9598 4.38117 19.6661 4.34695C19.5461 4.33289 19.4246 4.3545 19.3165 4.40916C19.2084 4.46382 19.1182 4.54918 19.057 4.65485C18.9958 4.76052 18.9661 4.88197 18.9717 5.00442C18.9772 5.12687 19.0177 5.24506 19.0881 5.34461C19.1252 5.39594 22.6971 10.5647 21.4805 18.7816C20.5892 24.7999 15.8514 28.3521 15.8043 28.3874C15.7083 28.4578 15.634 28.5545 15.5902 28.6662C15.5464 28.7779 15.5348 28.9 15.557 29.0181C15.5791 29.1362 15.6339 29.2455 15.715 29.3331C15.7962 29.4207 15.9002 29.483 16.015 29.5128C16.7734 29.7126 17.5536 29.8149 18.3371 29.8174C23.1327 29.8174 25.9599 25.8183 26.161 25.524C26.937 24.4425 28.1012 23.7086 29.6286 23.3309C28.2224 25.4665 27.1744 27.8236 26.5269 30.3066C26.2774 31.3273 25.8562 32.2966 25.2818 33.1719C24.8967 33.7584 24.4365 34.2903 23.9132 34.7538C20.4201 34.7619 16.9305 34.5284 13.4687 34.0549C13.4598 34.0535 13.4509 34.0524 13.442 34.0515C4.67762 33.1036 1.38661 37.8449 1.25079 38.0472C1.19763 38.1264 1.16289 38.2167 1.14918 38.3115C1.13548 38.4063 1.14317 38.503 1.17167 38.5943C2.15909 41.7583 3.76025 44.6899 5.88092 47.2166C8.15003 51.2492 12.5239 54.4678 15.8036 56.4616C19.4826 58.698 24.7748 59.9692 28.0123 59.9692C31.7604 59.9603 35.454 59.0576 38.7951 57.3338C39.9893 58.1476 42.0496 59.1146 45.1044 59.1146C46.4889 59.1042 47.8673 58.9275 49.2108 58.5882C49.3262 58.5596 49.4311 58.4983 49.5133 58.4114C49.5954 58.3245 49.6515 58.2157 49.6748 58.0976C49.6982 57.9795 49.6878 57.8571 49.645 57.7448C49.6022 57.6324 49.5288 57.5348 49.4332 57.4634C49.4184 57.4523 47.9373 56.3287 46.7348 54.075C46.6959 54.0019 46.6431 53.9373 46.5796 53.8849C46.5161 53.8325 46.443 53.7933 46.3646 53.7695C46.2861 53.7458 46.2038 53.7379 46.1224 53.7465C46.041 53.755 45.962 53.7798 45.89 53.8193C45.818 53.8588 45.7544 53.9123 45.7027 53.9768C45.6511 54.0413 45.6125 54.1155 45.5892 54.1951C45.5658 54.2747 45.5582 54.3582 45.5667 54.4409C45.5751 54.5235 45.5996 54.6036 45.6386 54.6767C46.2052 55.7455 46.9125 56.7312 47.7409 57.6067C44.035 58.2617 41.5447 57.4692 40.0697 56.6421C45.0608 53.7617 48.3685 49.7685 49.7606 47.8662C49.9998 47.879 50.2435 47.8867 50.4918 47.8867C52.0623 47.9013 53.6192 47.5909 55.0674 46.9744C58.1394 45.6372 60.4119 42.8811 61.8214 38.7827C61.8592 38.6726 61.8662 38.554 61.8417 38.44C61.8173 38.326 61.7622 38.2211 61.6826 38.1369C61.6031 38.0527 61.5021 37.9925 61.391 37.9628C61.2798 37.9332 61.1627 37.9353 61.0526 37.969L61.0541 37.9705ZM28.0113 58.7049C25.5812 58.7049 19.9347 57.4989 16.4442 55.3769C13.3959 53.5237 9.37186 50.586 7.17946 46.962C8.28474 46.0503 12.1111 43.6257 18.3981 47.1482C18.5374 47.2234 21.8664 49.0096 26.8583 49.8617C31.4135 50.6392 38.2399 50.7317 45.0375 46.8362C46.0922 47.2496 47.1884 47.5446 48.3064 47.716C45.6562 51.1382 38.5946 58.7049 28.0113 58.7049ZM54.5859 45.81C50.1533 47.7455 45.3011 45.5798 45.2526 45.5577C45.1625 45.5156 45.0636 45.4963 44.9646 45.5015C44.8655 45.5066 44.7691 45.5361 44.6837 45.5874C38.1338 49.4451 31.5106 49.3667 27.1078 48.6219C22.3061 47.8096 19.0185 46.0507 18.9934 46.0371C14.6598 43.6092 11.3593 43.8196 9.35278 44.4235C8.29763 44.7348 7.3111 45.2486 6.44663 45.9369C4.70525 43.7194 3.3566 41.2119 2.46076 38.5261C3.21176 37.6277 6.32489 34.5563 13.2969 35.3065C13.8565 35.3913 23.1626 36.7611 31.0261 35.4867C31.1873 35.458 31.3308 35.3661 31.4258 35.2308C31.5208 35.0956 31.5596 34.9279 31.5338 34.7639C31.508 34.6 31.4197 34.4528 31.2879 34.3544C31.1561 34.2559 30.9915 34.214 30.8295 34.2376C29.1282 34.5023 27.4126 34.662 25.6922 34.716C25.9134 34.4485 26.1209 34.1696 26.3137 33.8804C26.9684 32.8848 27.4489 31.782 27.7341 30.6206C28.2984 28.3951 30.6073 21.2286 37.4263 18.1192C36.5419 20.8576 35.1885 27.0006 39.4116 30.2855C38.6606 31.261 37.561 32.0849 36.1154 32.7455C36.0407 32.7796 35.9735 32.8282 35.9174 32.8887C35.8613 32.9492 35.8175 33.0203 35.7885 33.0979C35.7595 33.1756 35.7459 33.2583 35.7484 33.3413C35.7509 33.4243 35.7694 33.506 35.8031 33.5817C35.8367 33.6574 35.8846 33.7257 35.9442 33.7826C36.0038 33.8395 36.0739 33.8839 36.1504 33.9134C36.2269 33.9428 36.3084 33.9566 36.3902 33.9541C36.472 33.9516 36.5525 33.9327 36.6271 33.8986C39.4419 32.6125 41.1411 30.743 41.6772 28.3417C41.6794 28.3321 41.6814 28.3229 41.6829 28.3128C41.7014 28.2097 42.0987 25.7639 39.6919 23.8242C39.5624 23.7199 39.3974 23.6721 39.2332 23.6912C39.069 23.7103 38.9189 23.7949 38.8161 23.9263C38.7133 24.0576 38.6661 24.2251 38.685 24.3917C38.7038 24.5584 38.7872 24.7106 38.9166 24.815C40.6716 26.2289 40.4794 27.9245 40.4574 28.0815C40.3692 28.4687 40.2402 28.8452 40.0725 29.2044C37.466 27.0733 37.534 23.4232 38.0576 20.7173C38.9496 20.8292 40.1359 21.0067 41.3394 21.2716C41.346 21.2733 41.3536 21.2748 41.3605 21.2761C43.4453 21.7356 45.4365 22.5561 47.2467 23.7017C51.0234 26.1381 52.8585 29.5562 52.7012 33.8608C52.6547 35.0766 52.4417 36.2799 52.0685 37.4361C51.5886 37.2389 51.1216 37.011 50.6702 36.7538C50.5261 36.6715 50.3557 36.6507 50.1964 36.6959C50.0372 36.7411 49.9022 36.8487 49.8211 36.9949C49.74 37.1412 49.7195 37.3141 49.7641 37.4757C49.8086 37.6373 49.9146 37.7743 50.0588 37.8565C54.085 40.1521 58.2526 39.812 60.236 39.4525C58.9429 42.5995 57.0453 44.7356 54.5859 45.8096V45.81Z" fill="#408F95"/>
<path d="M19.7411 38.888L18.9926 39.192C18.9161 39.2226 18.8464 39.2681 18.7874 39.3261C18.7284 39.3841 18.6812 39.4533 18.6487 39.5298C18.6161 39.6063 18.5988 39.6886 18.5977 39.772C18.5966 39.8553 18.6118 39.9381 18.6423 40.0154C18.6728 40.0928 18.7181 40.1633 18.7756 40.2229C18.8331 40.2824 18.9016 40.3298 18.9772 40.3624C19.0528 40.395 19.134 40.4121 19.2161 40.4127C19.2983 40.4133 19.3797 40.3975 19.4558 40.3661L20.2044 40.062C20.2808 40.0315 20.3505 39.9859 20.4096 39.928C20.4686 39.87 20.5157 39.8007 20.5483 39.7242C20.5808 39.6477 20.5981 39.5654 20.5992 39.4821C20.6003 39.3987 20.5852 39.316 20.5546 39.2386C20.5241 39.1612 20.4788 39.0907 20.4213 39.0312C20.3639 38.9716 20.2953 38.9242 20.2197 38.8916C20.1441 38.859 20.0629 38.842 19.9808 38.8413C19.8987 38.8407 19.8172 38.8566 19.7411 38.888Z" fill="#408F95"/>
<path d="M32.4096 39.8868C32.4746 39.7345 32.478 39.5624 32.419 39.4075C32.3601 39.2527 32.2435 39.1276 32.0945 39.0592C31.9455 38.9907 31.7759 38.9845 31.6224 39.0418C31.4689 39.0991 31.3437 39.2153 31.2739 39.3654C31.2163 39.494 29.891 42.5431 32.2459 45.088C32.3633 45.2026 32.5183 45.269 32.6811 45.2742C32.8439 45.2794 33.0028 45.2231 33.127 45.1162C33.1867 45.0594 33.2349 44.9912 33.2686 44.9155C33.3023 44.8398 33.321 44.7581 33.3236 44.6751C33.3262 44.5921 33.3126 44.5093 33.2836 44.4316C33.2547 44.3539 33.2109 44.2828 33.1548 44.2223C31.3827 42.3071 32.3643 39.9902 32.4096 39.8868Z" fill="#408F95"/>
<path d="M35.962 39.1864C36.0302 39.0336 36.0357 38.8596 35.9775 38.7026C35.9192 38.5457 35.8018 38.4187 35.6513 38.3495C35.5007 38.2803 35.3292 38.2747 35.1745 38.3338C35.0199 38.393 34.8947 38.512 34.8265 38.6648C34.7691 38.7934 33.4437 41.8424 35.7988 44.3873C35.9216 44.5201 36.4473 44.616 36.6798 44.4155C36.7407 44.3595 36.7899 44.2915 36.8244 44.2158C36.8588 44.14 36.8779 44.058 36.8805 43.9746C36.8831 43.8912 36.8692 43.8081 36.8395 43.7303C36.8097 43.6525 36.7649 43.5815 36.7076 43.5217C34.9362 41.6074 35.9161 39.2921 35.962 39.1864Z" fill="#408F95"/>
<path d="M39.1683 37.8382C39.2334 37.6859 39.2368 37.5138 39.1778 37.359C39.1189 37.2041 39.0023 37.079 38.8533 37.0106C38.7043 36.9422 38.5347 36.9359 38.3812 36.9932C38.2277 37.0505 38.1025 37.1668 38.0327 37.3169C37.975 37.4455 36.6498 40.4945 39.0047 43.0396C39.1274 43.1723 39.6486 43.284 39.8856 43.0678C39.9459 43.0113 39.9944 42.9432 40.0285 42.8675C40.0625 42.7918 40.0814 42.7099 40.084 42.6268C40.0866 42.5436 40.0728 42.4607 40.0435 42.3829C40.0143 42.3052 39.97 42.2341 39.9134 42.1739C38.1405 40.2578 39.1242 37.939 39.1683 37.8382Z" fill="#408F95"/>
</svg>
